<svg width="54" height="54" viewBox="0 0 54 54" fill="none" xmlns="http://www.w3.org/2000/svg">
<g id="message-circle-question">
<path id="Vector" d="M33.795 43.92C28.5278 45.576 22.545 45.2835 17.325 42.75L6.75 45L9.675 36.225C4.446 28.4917 6.4665 18.513 14.4 12.8835C22.3335 7.25624 33.7275 7.71749 41.0513 13.9635C44.7615 17.1292 46.845 21.2827 47.2207 25.5555M42.75 49.5V49.5225M42.75 42.75C43.7587 42.7468 44.7371 42.4053 45.5287 41.7801C46.3203 41.155 46.8793 40.2824 47.1162 39.3019C47.3532 38.3215 47.2544 37.2899 46.8356 36.3723C46.4169 35.4546 45.7024 34.704 44.8065 34.2405C43.9114 33.782 42.8875 33.6398 41.9013 33.8371C40.9152 34.0344 40.0248 34.5596 39.375 35.3272" stroke="#354052" stroke-width="2" stroke-linecap="round" stroke-linejoin="round"/>
</g>
</svg>
